<svg xmlns="http://www.w3.org/2000/svg" width="100%" height="100%" viewBox="0 0 54.742 49.99"><defs><style>.a{fill:#fff;}.b,.c{fill:none;stroke:#fff;}.b{stroke-width:1.5px;}.c{stroke-width:2px;}</style></defs><g transform="translate(-1.78 1.221)"><g transform="translate(1.78 -1.221)"><path class="a" d="M0,12.237H12.271V0H22.509V12.237H34.774V22.5H22.509V34.767H12.271V22.5H0Z" transform="translate(0 0.001)"/></g><g transform="translate(30.931 24.629)"><path class="a" d="M1591.258,136.2V146.34h4.789l6.861,6.861h2.624V129.06h-2.624l-6.861,7.137Z" transform="translate(-1591.258 -129.06)"/><path class="b" d="M1608.818,138.328s3.1.845,3.193,3.381-3.193,3.287-3.193,3.287" transform="translate(-1591.914 -129.406)"/><path class="c" d="M1608.817,138.328s7.457,2.034,7.683,8.134-7.683,7.908-7.683,7.908" transform="translate(-1591.913 -134.279)"/></g></g></svg>