<?xml version="1.0" standalone="no"?>
<!DOCTYPE svg PUBLIC "-//W3C//DTD SVG 20010904//EN"
 "http://www.w3.org/TR/2001/REC-SVG-20010904/DTD/svg10.dtd">
<svg version="1.0" xmlns="http://www.w3.org/2000/svg"
 width="453.000000pt" height="453.000000pt" viewBox="0 0 453.000000 453.000000"
 preserveAspectRatio="xMidYMid meet">
<metadata>
Created by potrace 1.14, written by Peter Selinger 2001-2017
</metadata>
<g transform="translate(0.000000,453.000000) scale(0.100000,-0.100000)"
fill="#000000" stroke="none">
<path d="M338 4328 c-7 -4 -23 -8 -34 -8 -34 0 -100 -73 -113 -124 -15 -62
-16 -3783 0 -3855 13 -62 62 -116 122 -132 31 -9 391 -11 1402 -10 1481 2
1421 0 1620 61 99 29 319 131 363 167 12 10 45 34 74 53 51 35 81 62 128 116
14 16 39 40 55 54 68 57 205 255 222 320 3 14 9 27 12 30 13 10 69 158 94 250
46 165 70 437 47 521 -13 48 -53 86 -104 100 -29 8 -243 12 -708 13 l-668 1
-1 -115 c-1 -224 -2 -235 -17 -252 -37 -44 -52 -32 -369 285 -167 167 -303
302 -303 300 0 -2 -23 22 -50 52 -50 55 -58 77 -40 105 5 8 163 169 352 358
284 283 347 342 370 342 44 0 58 -32 57 -130 -1 -47 -1 -115 0 -152 l1 -67
133 -1 c348 -3 1130 0 1164 6 78 11 111 25 143 58 19 19 36 44 39 57 3 13 6
105 6 204 -1 169 -7 227 -41 355 -12 49 -57 170 -83 225 -38 80 -159 260 -202
300 -55 53 -114 112 -129 132 -29 38 -237 172 -361 232 -84 41 -162 70 -241
91 -166 42 -156 40 -343 50 -213 12 -2580 19 -2597 8z"/>
</g>
</svg>
